<?xml version="1.0" standalone="no"?>
<!DOCTYPE svg PUBLIC "-//W3C//DTD SVG 20010904//EN"
 "http://www.w3.org/TR/2001/REC-SVG-20010904/DTD/svg10.dtd">
<svg version="1.0" xmlns="http://www.w3.org/2000/svg"
 width="128.000000pt" height="128.000000pt" viewBox="0 0 128.000000 128.000000"
 preserveAspectRatio="xMidYMid meet">

<g transform="translate(0.000000,128.000000) scale(0.100000,-0.100000)"
fill="#000000" stroke="none">
<path d="M635 1121 c-83 -38 -115 -102 -123 -238 l-5 -93 -48 0 -49 0 0 -95 0
-95 50 0 50 0 0 -275 0 -275 115 0 115 0 0 275 0 275 74 0 c86 0 81 -6 92 113
l6 77 -86 0 -86 0 0 68 c0 40 5 73 12 80 7 7 42 12 85 12 l73 0 0 95 0 95
-117 0 c-93 0 -126 -4 -158 -19z"/>
</g>
</svg>
