<?xml version="1.0" standalone="no"?>
<!DOCTYPE svg PUBLIC "-//W3C//DTD SVG 20010904//EN"
 "http://www.w3.org/TR/2001/REC-SVG-20010904/DTD/svg10.dtd">
<svg version="1.0" xmlns="http://www.w3.org/2000/svg"
 width="128.000000pt" height="128.000000pt" viewBox="0 0 128.000000 128.000000"
 preserveAspectRatio="xMidYMid meet">

<g transform="translate(0.000000,128.000000) scale(0.100000,-0.100000)"
fill="#000000" stroke="none">
<path d="M125 1059 c-49 -24 -50 -33 -53 -384 -2 -300 -1 -333 15 -365 12 -24
29 -39 53 -47 40 -14 877 -17 969 -4 95 14 91 -2 91 403 l0 350 -29 29 -29 29
-499 -1 c-309 0 -506 -4 -518 -10z m895 -23 c-8 -8 -98 -76 -199 -150 l-184
-135 -51 36 c-76 56 -330 245 -340 254 -6 5 167 9 389 9 349 0 397 -2 385 -14z
m-606 -351 c96 -66 176 -123 176 -126 0 -5 -249 -182 -342 -242 l-28 -19 0
257 c0 153 4 255 9 253 5 -1 88 -57 185 -123z m636 -130 l0 -256 -117 82 c-65
44 -149 102 -186 127 -55 37 -65 48 -55 58 18 18 341 242 351 243 4 1 7 -114
7 -254z m-204 -142 l185 -128 -195 -3 c-107 -1 -284 -1 -394 0 l-199 3 181
127 c124 87 190 127 209 127 20 1 80 -35 213 -126z"/>
</g>
</svg>
