<?xml version="1.0" standalone="no"?>
<!DOCTYPE svg PUBLIC "-//W3C//DTD SVG 20010904//EN"
 "http://www.w3.org/TR/2001/REC-SVG-20010904/DTD/svg10.dtd">
<svg version="1.0" xmlns="http://www.w3.org/2000/svg"
 width="128.000000pt" height="128.000000pt" viewBox="0 0 128.000000 128.000000"
 preserveAspectRatio="xMidYMid meet">

<g transform="translate(0.000000,128.000000) scale(0.100000,-0.100000)"
fill="#000000" stroke="none">
<path d="M285 1152 c-95 -33 -158 -97 -190 -192 -14 -41 -16 -95 -13 -367 l3
-318 27 -51 c28 -52 86 -112 135 -137 61 -32 144 -39 428 -35 l281 3 66 33
c75 37 110 72 147 152 l26 55 0 315 0 315 -29 63 c-32 70 -86 124 -155 156
-43 20 -63 21 -361 23 -279 3 -321 1 -365 -15z m702 -110 c50 -26 87 -78 103
-143 8 -30 10 -137 8 -315 -3 -255 -4 -271 -25 -310 -27 -51 -72 -90 -121
-104 -24 -7 -141 -10 -338 -8 l-301 3 -41 28 c-23 15 -52 46 -64 70 -22 40
-23 53 -26 330 -4 324 1 357 62 416 58 56 88 61 411 58 280 -2 291 -3 332 -25z"/>
<path d="M912 969 c-54 -20 -51 -99 5 -120 22 -8 32 -6 52 9 62 46 15 137 -57
111z"/>
<path d="M530 883 c-62 -22 -142 -105 -163 -167 -35 -104 -15 -212 56 -292 57
-65 123 -94 212 -94 164 0 286 121 286 284 0 109 -51 195 -150 254 -56 33
-172 40 -241 15z m188 -104 c145 -70 130 -289 -24 -339 -48 -16 -117 -8 -157
20 -123 85 -108 260 28 321 53 24 99 24 153 -2z"/>
</g>
</svg>
