<?xml version="1.0" standalone="no"?>
<!DOCTYPE svg PUBLIC "-//W3C//DTD SVG 20010904//EN"
 "http://www.w3.org/TR/2001/REC-SVG-20010904/DTD/svg10.dtd">
<svg version="1.0" xmlns="http://www.w3.org/2000/svg"
 width="124.000000pt" height="124.000000pt" viewBox="0 0 124.000000 124.000000"
 preserveAspectRatio="xMidYMid meet">

<g transform="translate(0.000000,124.000000) scale(0.100000,-0.100000)"
fill="#000000" stroke="none">
<path d="M720 980 c0 -16 -7 -20 -35 -20 -32 0 -35 -2 -35 -30 0 -20 -5 -30
-15 -30 -12 0 -15 -14 -15 -70 l0 -70 -85 0 c-69 0 -85 3 -85 15 0 12 -13 15
-55 15 -48 0 -55 2 -55 20 0 11 -7 20 -15 20 -8 0 -15 7 -15 15 0 10 -11 15
-35 15 -28 0 -35 4 -35 20 0 11 -7 20 -15 20 -8 0 -15 7 -15 15 0 8 -9 15 -20
15 -11 0 -20 7 -20 15 0 8 -7 15 -15 15 -12 0 -15 -18 -15 -100 0 -82 3 -100
15 -100 8 0 15 -9 15 -20 0 -13 7 -20 20 -20 11 0 20 -7 20 -15 0 -10 -11 -15
-35 -15 l-35 0 0 -50 c0 -38 4 -50 15 -50 8 0 15 -9 15 -20 0 -13 7 -20 20
-20 11 0 20 -7 20 -15 0 -10 11 -15 35 -15 28 0 35 -4 35 -20 0 -16 -7 -20
-35 -20 -24 0 -35 -5 -35 -15 0 -8 7 -15 15 -15 10 0 15 -11 15 -35 0 -33 2
-35 35 -35 28 0 35 -4 35 -20 0 -16 7 -20 35 -20 24 0 35 -5 35 -15 0 -8 -9
-15 -20 -15 -11 0 -20 -7 -20 -15 0 -10 -10 -15 -30 -15 -23 0 -30 -4 -30 -20
0 -19 -7 -20 -90 -20 -73 0 -90 -3 -90 -15 0 -10 11 -15 35 -15 28 0 35 -4 35
-20 0 -18 7 -20 55 -20 42 0 55 -3 55 -15 0 -13 22 -15 135 -15 113 0 135 2
135 15 0 12 14 15 70 15 63 0 70 2 70 20 0 11 7 20 15 20 8 0 15 7 15 15 0 10
11 15 35 15 28 0 35 4 35 20 0 13 7 20 20 20 11 0 20 7 20 15 0 8 7 15 15 15
8 0 15 7 15 15 0 8 9 15 20 15 13 0 20 7 20 20 0 11 7 20 15 20 8 0 15 7 15
15 0 8 7 15 15 15 10 0 15 11 15 35 0 28 4 35 20 35 18 0 20 7 20 55 0 42 3
55 15 55 12 0 15 18 15 100 0 93 1 100 20 100 13 0 20 7 20 20 0 11 7 20 15
20 8 0 15 7 15 15 0 8 9 15 20 15 13 0 20 7 20 20 0 16 -7 20 -35 20 -24 0
-35 5 -35 15 0 8 7 15 15 15 8 0 15 7 15 15 0 12 -16 15 -85 15 -78 0 -85 2
-85 20 0 19 -7 20 -105 20 -98 0 -105 -1 -105 -20z"/>
</g>
</svg>
