<?xml version="1.0" standalone="no"?>
<!DOCTYPE svg PUBLIC "-//W3C//DTD SVG 20010904//EN"
 "http://www.w3.org/TR/2001/REC-SVG-20010904/DTD/svg10.dtd">
<svg version="1.0" xmlns="http://www.w3.org/2000/svg"
 width="128.000000pt" height="128.000000pt" viewBox="0 0 128.000000 128.000000"
 preserveAspectRatio="xMidYMid meet">

<g transform="translate(0.000000,128.000000) scale(0.100000,-0.100000)"
fill="#000000" stroke="none">
<path d="M300 1152 c0 -4 18 -62 40 -127 34 -101 40 -132 40 -202 l0 -83 35 0
35 0 0 83 c0 70 6 101 40 202 22 65 40 123 40 127 0 4 -15 8 -34 8 l-33 0 -23
-85 c-13 -47 -24 -84 -25 -83 -2 2 -13 40 -25 86 l-22 82 -34 0 c-19 0 -34 -4
-34 -8z"/>
<path d="M584 1046 c-17 -8 -34 -21 -38 -31 -3 -9 -6 -65 -6 -124 0 -99 2
-109 23 -129 44 -41 123 -37 147 9 11 19 14 218 4 244 -8 19 -55 45 -81 45
-10 -1 -32 -7 -49 -14z m71 -151 c0 -90 -2 -100 -19 -103 -10 -2 -22 2 -27 10
-10 16 -12 182 -2 192 4 4 16 6 28 4 19 -3 20 -10 20 -103z"/>
<path d="M770 914 c0 -74 5 -144 10 -155 13 -23 57 -25 88 -3 20 14 22 14 22
0 0 -11 10 -16 30 -16 l30 0 0 155 0 155 -30 0 -30 0 0 -120 c0 -108 -2 -120
-19 -130 -11 -5 -22 -10 -25 -10 -3 0 -6 59 -6 130 l0 130 -35 0 -35 0 0 -136z"/>
<path d="M196 617 c-22 -12 -53 -39 -70 -60 -31 -39 -31 -40 -34 -175 -2 -80
1 -152 7 -173 14 -46 88 -116 133 -124 18 -3 214 -5 435 -3 451 3 419 -2 487
82 l31 38 0 158 0 158 -31 39 c-17 21 -48 48 -70 60 -39 22 -43 23 -444 23
-401 0 -405 -1 -444 -23z m244 -72 c0 -22 -4 -25 -35 -25 l-35 0 0 -165 0
-165 -30 0 -30 0 0 165 0 165 -35 0 c-31 0 -35 3 -35 25 l0 25 100 0 100 0 0
-25z m280 -30 c0 -59 1 -61 31 -44 16 8 26 7 45 -6 23 -15 24 -20 24 -133 0
-78 -4 -122 -12 -130 -15 -15 -61 -15 -76 0 -9 9 -12 9 -12 0 0 -7 -13 -12
-30 -12 l-30 0 0 190 0 190 30 0 c30 0 30 -1 30 -55z m275 -60 c20 -19 25 -34
25 -74 l0 -50 -52 -3 c-52 -3 -53 -4 -56 -36 -6 -57 36 -83 48 -31 4 15 14 25
28 27 53 8 32 -80 -24 -98 -26 -9 -40 -8 -61 2 -41 19 -53 53 -53 146 0 79 2
85 29 113 38 37 82 39 116 4z m-475 -101 c0 -105 2 -115 18 -112 15 3 17 18
20 116 l3 112 29 0 30 0 0 -140 0 -140 -24 0 c-14 0 -27 4 -30 9 -4 5 -19 4
-36 -2 -58 -22 -65 -7 -68 142 l-3 131 31 0 30 0 0 -116z"/>
<path d="M727 423 c-4 -3 -7 -46 -7 -95 0 -72 3 -90 16 -95 9 -3 20 0 25 8 10
16 12 149 3 173 -6 16 -26 21 -37 9z"/>
<path d="M917 424 c-4 -4 -7 -18 -7 -31 0 -18 5 -23 26 -23 22 0 25 4 22 27
-3 27 -26 41 -41 27z"/>
</g>
</svg>
